<svg xmlns="http://www.w3.org/2000/svg" width="47.229" height="47.23" viewBox="0 0 47.229 47.23"><g transform="translate(-0.008 0)"><g transform="translate(0.008 0)"><path d="M106.409,248.1v-5.166a.922.922,0,0,0-.922-.922H97.369a.922.922,0,0,0-.922.922V248.1a.922.922,0,0,0,.922.922h8.118A.922.922,0,0,0,106.409,248.1Zm-1.845-.922H98.292v-3.321h6.273Z" transform="translate(-87.551 -219.687)" fill="#fff"/><path d="M109.227,350.933a.922.922,0,0,0-.922-.922h-7.38a.922.922,0,0,0-.922.922v4.059a.922.922,0,0,0,.922.922h7.38a.922.922,0,0,0,.922-.922Zm-1.845,3.136h-5.535v-2.214h5.535Z" transform="translate(-90.779 -317.724)" fill="#fff"/><path d="M224.925,355.915h8.118a.922.922,0,0,0,.922-.922v-4.059a.922.922,0,0,0-.922-.922h-8.118a.922.922,0,0,0-.922.922v4.059A.922.922,0,0,0,224.925,355.915Zm.922-4.059h6.273v2.214h-6.273Z" transform="translate(-203.341 -317.724)" fill="#fff"/><path d="M356,350.933v4.059a.922.922,0,0,0,.922.922h8.118a.922.922,0,0,0,.922-.922v-4.059a.922.922,0,0,0-.922-.922h-8.118A.922.922,0,0,0,356,350.933Zm1.845.922h6.273v2.214h-6.273Z" transform="translate(-323.164 -317.724)" fill="#fff"/><path d="M372.415,242.011h-7.38a.922.922,0,1,0,0,1.845h7.38a.922.922,0,1,0,0-1.845Z" transform="translate(-330.526 -219.687)" fill="#fff"/><path d="M409.709,290.011h-3.59a.922.922,0,1,0,0,1.845h3.59a.922.922,0,1,0,0-1.845Z" transform="translate(-367.82 -263.259)" fill="#fff"/><path d="M108.305,438.011h-7.38a.922.922,0,0,0,0,1.845h7.38a.922.922,0,0,0,0-1.845Z" transform="translate(-90.779 -397.607)" fill="#fff"/><path d="M233.227,438.933a.922.922,0,0,0-.922-.922h-7.38a.922.922,0,0,0,0,1.845h7.38A.922.922,0,0,0,233.227,438.933Z" transform="translate(-203.341 -397.607)" fill="#fff"/><path d="M45.729,18.547l1.088-4.06a4.612,4.612,0,0,0-3.261-5.649L11.162.159A4.612,4.612,0,0,0,5.513,3.42L.165,23.379a4.618,4.618,0,0,0,3.261,5.649l1.049.281V42.618A4.617,4.617,0,0,0,9.088,47.23H21.705a.922.922,0,1,0,0-1.845H9.088a2.77,2.77,0,0,1-2.767-2.767V21.955a2.77,2.77,0,0,1,2.767-2.767H42.624a2.77,2.77,0,0,1,2.767,2.767V42.618a2.77,2.77,0,0,1-2.767,2.767H30.007a.922.922,0,1,0,0,1.845H42.624a4.617,4.617,0,0,0,4.612-4.612V21.955a4.6,4.6,0,0,0-1.507-3.408ZM8.585,2.218a2.749,2.749,0,0,1,2.1-.276l32.393,8.68a2.767,2.767,0,0,1,1.957,3.389l-.1.356L7.2,4.254,7.3,3.9a2.75,2.75,0,0,1,1.289-1.68ZM4.476,21.955V27.4L3.9,27.246a2.767,2.767,0,0,1-1.957-3.389L5.375,11.065l23.431,6.278H9.088a4.617,4.617,0,0,0-4.612,4.612Zm31.458-4.612L5.852,9.283l.87-3.246L44.462,16.149l-.383,1.431a4.59,4.59,0,0,0-1.454-.236Z" transform="translate(-0.008 0)" fill="#fff"/><path d="M271.145,492.011a.923.923,0,1,0,.652.27A.929.929,0,0,0,271.145,492.011Z" transform="translate(-245.297 -446.626)" fill="#fff"/></g></g></svg>