<svg xmlns="http://www.w3.org/2000/svg" width="24.698" height="26" viewBox="0 0 24.698 26"><g transform="translate(-12.823 0)"><g transform="translate(12.823 0)"><path d="M20.14,17.419a2.706,2.706,0,0,0,1.943-1.778H32.324a2.778,2.778,0,0,0,2.656-2l2.456-8.481a2.133,2.133,0,0,0-2.049-2.726H29.429a.508.508,0,0,0,0,1.016h5.957a1.117,1.117,0,0,1,1.073,1.428L34,13.362a1.758,1.758,0,0,1-1.68,1.263H22.218a2.685,2.685,0,0,0-.059-.423l-2.4-10.749h5.1a.508.508,0,0,0,0-1.016H19.537l-.072-.325A2.684,2.684,0,0,0,16.829,0h-3.5a.508.508,0,0,0-.508.508V2.742a.508.508,0,0,0,.508.508h3.058l2.489,11.167a3.688,3.688,0,0,0,1.363,7.114H21.6a2.5,2.5,0,1,0,3.057,0h5.6a2.5,2.5,0,1,0,3.057,0h2.662a.508.508,0,0,0,.508-.508V18.789a.508.508,0,0,0-.508-.508H20.24a.437.437,0,0,1-.1-.863Zm2.993,7.566A1.481,1.481,0,1,1,24.614,23.5,1.483,1.483,0,0,1,23.132,24.984Zm8.657,0A1.481,1.481,0,1,1,33.27,23.5,1.483,1.483,0,0,1,31.789,24.984Zm-13-7.14A1.454,1.454,0,0,0,20.24,19.3H35.471v1.219H20.24a2.672,2.672,0,0,1-.644-5.264.508.508,0,0,0,.373-.6L17.291,2.632a.508.508,0,0,0-.5-.4H13.839V1.016h2.99a1.675,1.675,0,0,1,1.644,1.318l2.694,12.089a1.69,1.69,0,0,1-1.26,2.007A1.447,1.447,0,0,0,18.787,17.844Z" transform="translate(-12.823 0)" fill="#fff"/><path d="M285.343,49.016a.508.508,0,1,0-.359-.149A.511.511,0,0,0,285.343,49.016Z" transform="translate(-271.022 -45.562)" fill="#fff"/></g></g></svg>