<svg xmlns="http://www.w3.org/2000/svg" width="42.039" height="63.121" viewBox="0 0 42.039 63.121"><g transform="translate(-53.5 222)"><g transform="translate(53.5 -222)"><path d="M127.539,21.02a21.02,21.02,0,1,0-42.039,0,1.232,1.232,0,0,0,.473.97l14.1,11.05H97.643A6.171,6.171,0,0,0,91.479,39.2v3.329a1.233,1.233,0,0,0,2.466,0V39.2a3.7,3.7,0,0,1,3.7-3.7h2.714v8.389a1.233,1.233,0,0,0,1.951,1l4.213-3.02,4.213,3.02a1.233,1.233,0,0,0,1.951-1V35.505h2.71a3.7,3.7,0,0,1,3.7,3.7V56.956a3.7,3.7,0,0,1-3.7,3.7H97.643a3.7,3.7,0,0,1-3.7-3.7V53.628a1.233,1.233,0,0,0-2.466,0v3.329a6.171,6.171,0,0,0,6.164,6.164H115.4a6.171,6.171,0,0,0,6.164-6.164V39.2A6.171,6.171,0,0,0,115.4,33.04h-2.428l14.1-11.05A1.232,1.232,0,0,0,127.539,21.02Zm-2.648-2.608a10.6,10.6,0,0,0-10.589.135,44.47,44.47,0,0,0-1.946-11.908,17.663,17.663,0,0,0-1.658-3.7A18.6,18.6,0,0,1,124.891,18.411ZM106.52,2.466c.851,0,2.278,1.3,3.5,4.953a41.756,41.756,0,0,1,1.815,11.071,10.583,10.583,0,0,0-10.624,0,41.756,41.756,0,0,1,1.815-11.071c1.219-3.656,2.646-4.953,3.5-4.953Zm5.113,18.873-5.111,11.649-5.112-11.651a8.11,8.11,0,0,1,10.223,0Zm-12.738.4,4.844,11.039-15.051-11.8A8.106,8.106,0,0,1,98.894,21.741Zm15.257-.006a8.106,8.106,0,0,1,10.2-.75L109.307,32.776ZM102.341,2.941a17.66,17.66,0,0,0-1.658,3.7,44.472,44.472,0,0,0-1.946,11.908,10.6,10.6,0,0,0-10.589-.135A18.6,18.6,0,0,1,102.341,2.941Zm7.878,38.553-2.98-2.136a1.233,1.233,0,0,0-1.436,0l-2.98,2.136V35.505h7.4Z" transform="translate(-85.5)" fill="#fff"/><path d="M288.055,446.138a1.233,1.233,0,1,0,0-2.466h-3.822a1.233,1.233,0,1,0,0,2.466Z" transform="translate(-258.652 -388.975)" fill="#fff"/><path d="M135.233,382.466a1.233,1.233,0,1,0-.872-.361A1.242,1.242,0,0,0,135.233,382.466Z" transform="translate(-128.021 -333.153)" fill="#fff"/></g></g></svg>