<svg xmlns="http://www.w3.org/2000/svg" width="43.216" height="54.719" viewBox="0 0 43.216 54.719"><g transform="translate(-53.808 0.001)"><g transform="translate(53.808 -0.001)"><path d="M96.881,47.982l-6.922-11.99a6.192,6.192,0,0,0,2.154-3.9,4.028,4.028,0,0,1,1.534-2.658,6.207,6.207,0,0,0,1.94-7.238,4.028,4.028,0,0,1,0-3.069,6.207,6.207,0,0,0-1.94-7.238,4.027,4.027,0,0,1-1.534-2.658,6.207,6.207,0,0,0-5.3-5.3A4.028,4.028,0,0,1,84.156,2.4,6.207,6.207,0,0,0,76.917.458a4.028,4.028,0,0,1-3.069,0A6.207,6.207,0,0,0,66.61,2.4a4.028,4.028,0,0,1-2.658,1.535,6.207,6.207,0,0,0-5.3,5.3,4.028,4.028,0,0,1-1.535,2.658,6.207,6.207,0,0,0-1.94,7.238,4.028,4.028,0,0,1,0,3.069,6.207,6.207,0,0,0,1.94,7.238,4.028,4.028,0,0,1,1.535,2.658,6.192,6.192,0,0,0,2.2,3.938l-6.9,11.952a1.069,1.069,0,0,0,1.2,1.567l6.015-1.612,1.6,5.989a1.069,1.069,0,0,0,1.958.258l7.446-12.9a6.14,6.14,0,0,0,1.67-.422,4.028,4.028,0,0,1,3.069,0,6.142,6.142,0,0,0,1.743.43L86.1,54.184a1.069,1.069,0,0,0,1.958-.258l1.6-5.989,6.015,1.612a1.069,1.069,0,0,0,1.2-1.567ZM64.17,50.88l-1.214-4.529a1.069,1.069,0,0,0-1.309-.756l-4.555,1.22,5.616-9.728a6.148,6.148,0,0,0,1.242.3,4.028,4.028,0,0,1,2.658,1.535,6.179,6.179,0,0,0,3.214,2.163Zm8.868-11.993a4.063,4.063,0,0,1-4.738-1.27,6.154,6.154,0,0,0-4.06-2.344A4.063,4.063,0,0,1,60.771,31.8a6.154,6.154,0,0,0-2.344-4.06,4.063,4.063,0,0,1-1.27-4.738,6.153,6.153,0,0,0,0-4.689,4.063,4.063,0,0,1,1.27-4.738,6.154,6.154,0,0,0,2.344-4.06A4.063,4.063,0,0,1,64.24,6.05,6.153,6.153,0,0,0,68.3,3.706a4.059,4.059,0,0,1,4.738-1.27,6.154,6.154,0,0,0,4.689,0,4.063,4.063,0,0,1,4.738,1.27,6.153,6.153,0,0,0,4.06,2.344,4.063,4.063,0,0,1,3.469,3.469,6.154,6.154,0,0,0,2.344,4.06,4.063,4.063,0,0,1,1.27,4.738,6.154,6.154,0,0,0,0,4.689,4.063,4.063,0,0,1-1.27,4.738,6.154,6.154,0,0,0-2.344,4.06,4.063,4.063,0,0,1-3.469,3.469,6.153,6.153,0,0,0-4.06,2.344,4.063,4.063,0,0,1-4.738,1.27,6.154,6.154,0,0,0-4.689,0ZM89.185,45.6a1.069,1.069,0,0,0-1.309.756L86.662,50.88,81,41.072a6.178,6.178,0,0,0,3.157-2.146,4.027,4.027,0,0,1,2.658-1.535,6.142,6.142,0,0,0,1.3-.324l5.628,9.749Z" transform="translate(-53.808 0.001)" fill="#fff"/><path d="M179.8,133.249l-3.326,3.326a1.069,1.069,0,0,0,0,1.512l6.237,6.237a1.069,1.069,0,0,0,1.512,0l8.685-8.685a1.069,1.069,0,0,0,0-1.512l-3.326-3.326a1.069,1.069,0,0,0-1.512,0l-4.6,4.6-2.156-2.156a1.069,1.069,0,0,0-1.512,0Zm2.912,4.423a1.069,1.069,0,0,0,1.512,0l4.6-4.6,1.814,1.814-7.173,7.173-4.726-4.726,1.814-1.814Z" transform="translate(-163.082 -116.54)" fill="#fff"/><path d="M153.753,88.071a13.9,13.9,0,0,0-8.776-12.922,1.069,1.069,0,0,0-.788,1.987,11.758,11.758,0,1,1-8.664,0,1.069,1.069,0,0,0-.788-1.987,13.9,13.9,0,1,0,19.016,12.922Z" transform="translate(-118.249 -67.049)" fill="#fff"/><path d="M247.03,68.8a1.069,1.069,0,1,0-.756-.313A1.072,1.072,0,0,0,247.03,68.8Z" transform="translate(-225.422 -59.54)" fill="#fff"/></g></g></svg>