<svg xmlns="http://www.w3.org/2000/svg" width="20.516" height="26" viewBox="0 0 20.516 26"><g transform="translate(-54)"><g transform="translate(54)"><path d="M74.008,5.281H69.931A5.694,5.694,0,0,0,64.258,0h-.033a5.726,5.726,0,0,0-5.636,5.281H54.508A.508.508,0,0,0,54,5.789V23.461A2.542,2.542,0,0,0,56.539,26H71.977a2.542,2.542,0,0,0,2.539-2.539V17.52a.508.508,0,1,0-1.016,0v5.941a1.525,1.525,0,0,1-1.523,1.523H56.539a1.525,1.525,0,0,1-1.523-1.523V6.3H58.57V7.981a1.625,1.625,0,0,0,3.25,0V6.3H66.7V7.981a1.625,1.625,0,1,0,3.25,0V6.3H73.5v6.652a.508.508,0,1,0,1.016,0V5.789A.508.508,0,0,0,74.008,5.281Zm-12.153,0A2.441,2.441,0,0,1,64.3,3.25a2.463,2.463,0,0,1,2.358,2.031Zm7.075,2.7a.609.609,0,1,1-1.219,0V5.732a3.491,3.491,0,0,0-3.4-3.5h-.054A3.456,3.456,0,0,0,60.8,5.687V7.981a.609.609,0,1,1-1.219,0V5.745a4.712,4.712,0,0,1,4.645-4.729,4.678,4.678,0,0,1,4.7,4.672Z" transform="translate(-54 0)" fill="#fff"/><path d="M165.65,233.968a.95.95,0,0,0-.918-.667h-2.466l-.758-2.337a.95.95,0,0,0-.918-.667h0a.95.95,0,0,0-.917.67l-.751,2.335H156.46a.965.965,0,0,0-.565,1.747l2,1.441-.763,2.341a.95.95,0,0,0,.35,1.08.95.95,0,0,0,1.135,0l1.991-1.451,1.984,1.442a.965.965,0,0,0,1.484-1.081l-.764-2.329,1.99-1.443A.95.95,0,0,0,165.65,233.968Zm-3.238,1.917a.508.508,0,0,0-.184.569l.831,2.532-2.156-1.567a.508.508,0,0,0-.6,0L158.143,239l.829-2.544a.508.508,0,0,0-.186-.569l-2.169-1.566h2.674a.508.508,0,0,0,.483-.352l.816-2.538.823,2.539a.508.508,0,0,0,.483.351h2.679Z" transform="translate(-150.34 -218.601)" fill="#fff"/><path d="M438.508,290a.508.508,0,1,0,.359.149A.512.512,0,0,0,438.508,290Z" transform="translate(-418.5 -275.273)" fill="#fff"/></g></g></svg>